<svg xmlns="http://www.w3.org/2000/svg" viewBox="0 0 512 512">
  <!-- iOS rounded rectangle background -->
  <rect x="0" y="0" width="512" height="512" rx="92" ry="92" fill="url(#github-gradient)"/>
  
  <!-- GitHub icon -->
  <path d="M256 102.3c-85.2 0-154.2 69-154.2 154.2 0 68.1 44.2 126 105.4 146.3 7.7 1.5 10.5-3.3 10.5-7.4 0-3.7-0.1-13.4-0.2-26.2-42.9 9.3-52-20.7-52-20.7-7-17.9-17.1-22.7-17.1-22.7-14-9.6 1.1-9.4 1.1-9.4 15.5 1.1 23.7 15.9 23.7 15.9 13.8 23.6 36.1 16.8 44.9 12.8 1.4-10 5.4-16.8 9.8-20.6-34.2-3.9-70.3-17.1-70.3-76.2 0-16.8 6-30.6 15.9-41.4-1.7-3.9-6.9-19.6 1.3-40.8 0 0 12.9-4.1 42.4 15.8 12.3-3.4 25.5-5.1 38.6-5.2 13.1 0.1 26.3 1.8 38.6 5.2 29.4-19.9 42.3-15.8 42.3-15.8 8.3 21.3 3.1 36.9 1.5 40.8 9.9 10.8 15.8 24.6 15.8 41.4 0 59.3-36.1 72.3-70.5 76.1 5.5 4.8 10.5 14.2 10.5 28.5 0 20.6-0.2 37.2-0.2 42.2 0 4.1 2.8 8.9 10.6 7.4 61.1-20.4 105.2-78.2 105.2-146.3 0-85.2-69-154.2-154.2-154.2z" fill="white"/>
  
  <!-- Gradient definition -->
  <defs>
    <linearGradient id="github-gradient" x1="0%" y1="0%" x2="100%" y2="100%">
      <stop offset="0%" style="stop-color:#24292e;stop-opacity:1" />
      <stop offset="100%" style="stop-color:#2b3137;stop-opacity:1" />
    </linearGradient>
  </defs>
</svg> 