<svg xmlns="http://www.w3.org/2000/svg" viewBox="0 0 512 512">
  <!-- iOS rounded rectangle background -->
  <rect x="0" y="0" width="512" height="512" rx="92" ry="92" fill="#0077B5"/>
  
  <!-- LinkedIn icon -->
  <path d="M437 152.6v194.7c0 49.5-40.2 89.6-89.7 89.6H164.7c-49.5 0-89.7-40.1-89.7-89.6V152.6c0-49.5 40.2-89.6 89.7-89.6h182.6c49.5 0 89.7 40.1 89.7 89.6zM185.1 363.3V241.1H133v122.2h52.1zm-26-139c18.2 0 29.5-12 29.5-27-0.3-15.4-11.3-27-29.1-27 -17.9 0-29.5 11.6-29.5 27 0 15 11.3 27 28.8 27h0.3zM379 363.3v-70.1c0-47.6-25.4-69.7-59.3-69.7 -27.3 0-39.5 15-46.4 25.6V241H221.1c0.7 14.8 0 122.2 0 122.2h52.1v-68.3c0-4.7 0.3-9.3 1.7-12.7 3.7-9.3 12.2-18.9 26.4-18.9 18.6 0 26 14.2 26 35V363.3H379z" fill="white"/>
</svg> 